<svg xmlns="http://www.w3.org/2000/svg" viewBox="0 0 900 650" role="img" aria-labelledby="title-diagnostics"><title id="title-diagnostics">Diagnostic hypotheses and prerequisite planning retain separate authority</title><defs><marker id="arrow-diagnostics" markerWidth="8" markerHeight="8" refX="7" refY="4" orient="auto"><path d="M1 1L7 4L1 7" fill="none" stroke="#9b2335" stroke-width="1.4"/></marker></defs><rect width="900" height="650" fill="#fcfbf9"/><path class="connector" d="M436 133 L436 161 L136 161 L136 217" fill="none" stroke="#9b2335" stroke-width="1.8" stroke-linejoin="round" marker-end="url(#arrow-diagnostics)"/><path class="connector" d="M143 217 L143 198 L743 198 L743 217" fill="none" stroke="#9b2335" stroke-width="1.8" stroke-linejoin="round" marker-end="url(#arrow-diagnostics)"/><path class="connector" d="M450 133 L450 175 L750 175 L750 217" fill="none" stroke="#9b2335" stroke-width="1.8" stroke-linejoin="round" marker-end="url(#arrow-diagnostics)"/><path class="connector" d="M757 303 L757 352 L457 352 L457 387" fill="none" stroke="#9b2335" stroke-width="1.8" stroke-linejoin="round" marker-end="url(#arrow-diagnostics)"/><g class="node"><rect x="340" y="47" width="220" height="86" rx="9" fill="#9b2335" stroke="#9b2335" stroke-width="1.5"/><text x="450" y="69" text-anchor="middle" font-size="12" letter-spacing="2" font-family="sans-serif" fill="#fff">01</text><text x="450" y="100" text-anchor="middle" font-size="16" font-weight="600" font-family="sans-serif" fill="#fff"><tspan x="450" dy="0">Immutable evidence</tspan></text></g><g class="node"><rect x="40" y="217" width="220" height="86" rx="9" fill="#fff" stroke="#9b2335" stroke-width="1.5"/><text x="150" y="239" text-anchor="middle" font-size="12" letter-spacing="2" font-family="sans-serif" fill="#9b2335">02</text><text x="150" y="270" text-anchor="middle" font-size="16" font-weight="600" font-family="sans-serif" fill="#29252a"><tspan x="150" dy="0">TMG hypothesis</tspan></text></g><g class="node"><rect x="640" y="217" width="220" height="86" rx="9" fill="#fff" stroke="#9b2335" stroke-width="1.5"/><text x="750" y="239" text-anchor="middle" font-size="12" letter-spacing="2" font-family="sans-serif" fill="#9b2335">03</text><text x="750" y="270" text-anchor="middle" font-size="16" font-weight="600" font-family="sans-serif" fill="#29252a"><tspan x="750" dy="0">SCG prerequisite plan</tspan></text></g><g class="node"><rect x="340" y="387" width="220" height="86" rx="9" fill="#fff" stroke="#9b2335" stroke-width="1.5"/><text x="450" y="409" text-anchor="middle" font-size="12" letter-spacing="2" font-family="sans-serif" fill="#9b2335">04</text><text x="450" y="440" text-anchor="middle" font-size="16" font-weight="600" font-family="sans-serif" fill="#29252a"><tspan x="450" dy="0">Policy review / BHG</tspan></text></g><path d="M40 515H860" stroke="#dfd8d6"/><text x="40" y="545" font-size="14" font-family="sans-serif" fill="#51424b"><tspan font-weight="700" fill="#9b2335">01 → 02</tspan> · match relationships</text><text x="470" y="545" font-size="14" font-family="sans-serif" fill="#51424b"><tspan font-weight="700" fill="#9b2335">02 → 03</tspan> · desired fact</text><text x="40" y="570" font-size="14" font-family="sans-serif" fill="#51424b"><tspan font-weight="700" fill="#9b2335">01 → 03</tspan> · declared capabilities</text><text x="470" y="570" font-size="14" font-family="sans-serif" fill="#51424b"><tspan font-weight="700" fill="#9b2335">03 → 04</tspan> · diagnostic proposal</text></svg>